<svg xmlns="http://www.w3.org/2000/svg" width="500" height="500" viewBox="0 0 500 500" version="1.1">
    <path
        d="M 122.301 82.221 C 110.035 94.442, 100 104.703, 100 105.023 C 100 105.342, 109.776 95.791, 121.723 83.798 C 133.671 71.805, 144.307 61.720, 145.358 61.386 C 146.836 60.917, 149.845 63.356, 158.636 72.147 C 170.003 83.513, 170.003 83.513, 146.481 107.007 C 122.959 130.500, 122.959 130.500, 111.479 118.916 C 105.166 112.544, 100 107.774, 100 108.315 C 100 109.650, 121.114 131, 122.435 131 C 123.012 131, 134.174 120.318, 147.239 107.261 C 170.993 83.523, 170.993 83.523, 159.262 71.761 C 152.810 65.293, 146.872 60, 146.067 60 C 145.261 60, 134.566 69.999, 122.301 82.221 M 247.750 77.723 C 249.537 77.945, 252.463 77.945, 254.250 77.723 C 256.038 77.502, 254.575 77.320, 251 77.320 C 247.425 77.320, 245.963 77.502, 247.750 77.723 M 262.960 79.523 C 265.413 80.288, 267.574 80.760, 267.761 80.572 C 268.273 80.061, 261.942 77.990, 260.101 78.067 C 259.220 78.104, 260.507 78.759, 262.960 79.523 M 233 80 C 231.020 80.634, 230.916 80.801, 232.500 80.801 C 233.600 80.801, 235.625 80.440, 237 80 C 238.980 79.366, 239.084 79.199, 237.500 79.199 C 236.400 79.199, 234.375 79.560, 233 80 M 225 82 C 222.990 82.644, 222.892 82.806, 224.500 82.830 C 225.600 82.846, 227.400 82.473, 228.500 82 C 231.048 80.905, 228.419 80.905, 225 82 M 216.500 84 C 213.952 85.095, 216.581 85.095, 220 84 C 222.010 83.356, 222.108 83.194, 220.500 83.170 C 219.400 83.154, 217.600 83.527, 216.500 84 M 276 85.449 C 276 85.724, 277.350 86.647, 279 87.500 C 280.650 88.353, 282 88.826, 282 88.551 C 282 88.276, 280.650 87.353, 279 86.500 C 277.350 85.647, 276 85.174, 276 85.449 M 195 89 C 193.020 89.634, 192.916 89.801, 194.500 89.801 C 195.600 89.801, 197.625 89.440, 199 89 C 200.980 88.366, 201.084 88.199, 199.500 88.199 C 198.400 88.199, 196.375 88.560, 195 89 M 283 89.449 C 283 89.724, 284.350 90.647, 286 91.500 C 287.650 92.353, 289 92.826, 289 92.551 C 289 92.276, 287.650 91.353, 286 90.500 C 284.350 89.647, 283 89.174, 283 89.449 M 176.629 101.720 C 151.562 125.943, 137 140.440, 137 141.173 C 137 141.589, 138.012 142.420, 139.250 143.020 C 141.451 144.087, 141.457 144.075, 139.500 142.490 C 137.565 140.923, 138.296 140.091, 162 116.890 C 175.475 103.701, 187.850 92.273, 189.500 91.494 C 191.632 90.488, 191.959 90.067, 190.629 90.039 C 189.564 90.017, 183.532 95.050, 176.629 101.720 M 290.500 93.702 C 291.050 94.270, 293.750 95.993, 296.500 97.532 C 299.250 99.070, 301.050 99.865, 300.500 99.298 C 299.950 98.730, 297.250 97.007, 294.500 95.468 C 291.750 93.930, 289.950 93.135, 290.500 93.702 M 302 100.449 C 302 100.724, 303.350 101.647, 305 102.500 C 306.650 103.353, 308 103.826, 308 103.551 C 308 103.276, 306.650 102.353, 305 101.500 C 303.350 100.647, 302 100.174, 302 100.449 M 309 104.353 C 309 104.731, 314.678 108.135, 326.250 114.693 C 326.663 114.927, 327 114.906, 327 114.647 C 327 114.269, 321.322 110.865, 309.750 104.307 C 309.337 104.073, 309 104.094, 309 104.353 M 328 115.449 C 328 115.724, 329.350 116.647, 331 117.500 C 332.650 118.353, 334 118.826, 334 118.551 C 334 118.276, 332.650 117.353, 331 116.500 C 329.350 115.647, 328 115.174, 328 115.449 M 335.500 119.702 C 336.050 120.270, 338.750 121.993, 341.500 123.532 C 344.250 125.070, 346.050 125.865, 345.500 125.298 C 344.950 124.730, 342.250 123.007, 339.500 121.468 C 336.750 119.930, 334.950 119.135, 335.500 119.702 M 259.750 126.737 C 262.637 126.939, 267.363 126.939, 270.250 126.737 C 273.137 126.535, 270.775 126.370, 265 126.370 C 259.225 126.370, 256.863 126.535, 259.750 126.737 M 347 126.449 C 347 126.724, 348.350 127.647, 350 128.500 C 351.650 129.353, 353 129.826, 353 129.551 C 353 129.276, 351.650 128.353, 350 127.500 C 348.350 126.647, 347 126.174, 347 126.449 M 232.292 127.742 C 236.027 127.935, 241.877 127.934, 245.292 127.739 C 248.706 127.545, 245.650 127.387, 238.500 127.389 C 231.350 127.390, 228.556 127.550, 232.292 127.742 M 295.141 129.510 C 297.694 130.840, 301.406 133.825, 303.391 136.144 C 305.376 138.463, 307 140.055, 307 139.683 C 307 136.967, 294.436 126.861, 291.290 127.047 C 290.855 127.072, 292.589 128.181, 295.141 129.510 M 217.500 129.155 C 214.169 130.977, 213 133.175, 213 137.619 C 213 141.004, 213.529 142.271, 215.635 143.927 C 217.084 145.067, 219.222 145.961, 220.385 145.914 C 222.072 145.845, 221.931 145.657, 219.686 144.983 C 215.195 143.635, 213.999 142.084, 214.015 137.628 C 214.034 132.503, 214.678 131.471, 219.032 129.582 C 220.940 128.755, 221.825 128.074, 221 128.070 C 220.175 128.065, 218.600 128.553, 217.500 129.155 M 354.500 130.726 C 355.050 131.251, 357.300 132.691, 359.500 133.926 C 361.700 135.161, 362.600 135.424, 361.500 134.510 C 359.266 132.653, 352.931 129.228, 354.500 130.726 M 368 146.423 C 368 149.677, 367.309 151.726, 365.386 154.173 C 362.773 157.500, 362.773 157.500, 365.886 154.234 C 368.423 151.574, 369 150.137, 369 146.484 C 369 144.018, 368.775 142, 368.500 142 C 368.225 142, 368 143.990, 368 146.423 M 142.500 144.714 C 143.050 145.274, 147.550 147.885, 152.500 150.517 C 157.450 153.149, 161.050 154.845, 160.500 154.286 C 159.950 153.726, 155.450 151.115, 150.500 148.483 C 145.550 145.851, 141.950 144.155, 142.500 144.714 M 272.840 144.949 C 288.118 145.498, 288.189 145.511, 290.590 148.306 C 291.915 149.849, 293 150.676, 293 150.145 C 293 149.613, 291.615 148.013, 289.923 146.589 C 286.891 144.038, 286.634 144.003, 272.173 144.199 C 257.500 144.398, 257.500 144.398, 272.840 144.949 M 232.299 145.745 C 237.139 145.929, 244.789 145.928, 249.299 145.743 C 253.810 145.558, 249.850 145.408, 240.500 145.409 C 231.150 145.410, 227.460 145.562, 232.299 145.745 M 311.251 151 C 311.478 151.846, 312.928 152.569, 314.577 152.659 C 317.094 152.795, 317.153 152.747, 315 152.308 C 313.625 152.028, 312.128 151.281, 311.674 150.649 C 311.122 149.881, 310.981 149.997, 311.251 151 M 293.232 155 C 293.232 156.925, 293.438 157.713, 293.689 156.750 C 293.941 155.787, 293.941 154.213, 293.689 153.250 C 293.438 152.287, 293.232 153.075, 293.232 155 M 321.500 154 C 323.150 154.420, 325.850 154.765, 327.500 154.767 C 330.022 154.769, 329.863 154.638, 326.500 153.943 C 321.434 152.895, 317.341 152.942, 321.500 154 M 162 155.466 C 162 155.741, 164.250 157.106, 167 158.500 C 169.750 159.894, 172 160.809, 172 160.534 C 172 160.259, 169.750 158.894, 167 157.500 C 164.250 156.106, 162 155.191, 162 155.466 M 346.500 158.082 C 350.664 159.028, 359.265 159.121, 360.641 158.235 C 361.268 157.831, 357.668 157.478, 352.641 157.450 C 347.240 157.421, 344.727 157.679, 346.500 158.082 M 291.639 160.499 C 291.304 161.370, 289.561 162.722, 287.765 163.503 C 285.969 164.283, 285.262 164.939, 286.194 164.961 C 288.184 165.007, 293.789 160.460, 292.874 159.542 C 292.529 159.196, 291.973 159.627, 291.639 160.499 M 173.500 161.734 C 174.050 162.295, 179 165.129, 184.500 168.031 C 190 170.933, 194.050 172.853, 193.500 172.297 C 192.950 171.741, 188 168.908, 182.500 166 C 177 163.092, 172.950 161.173, 173.500 161.734 M 259.500 169 C 256.824 169.681, 256.770 169.763, 259 169.763 C 260.375 169.763, 262.850 169.420, 264.500 169 C 267.176 168.319, 267.230 168.237, 265 168.237 C 263.625 168.237, 261.150 168.580, 259.500 169 M 231.500 174 C 228.824 174.681, 228.770 174.763, 231 174.763 C 232.375 174.763, 234.850 174.420, 236.500 174 C 239.176 173.319, 239.230 173.237, 237 173.237 C 235.625 173.237, 233.150 173.580, 231.500 174 M 199.500 175.536 C 201.150 176.292, 203.625 176.900, 205 176.887 C 206.514 176.874, 205.528 176.318, 202.500 175.477 C 196.315 173.759, 195.648 173.772, 199.500 175.536 M 220.500 176 C 217.824 176.681, 217.770 176.763, 220 176.763 C 221.375 176.763, 223.850 176.420, 225.500 176 C 228.176 175.319, 228.230 175.237, 226 175.237 C 224.625 175.237, 222.150 175.580, 220.500 176 M 210.762 177.707 C 212.006 177.946, 213.806 177.937, 214.762 177.687 C 215.718 177.437, 214.700 177.241, 212.500 177.252 C 210.300 177.263, 209.518 177.468, 210.762 177.707 M 268.500 185 C 265.824 185.681, 265.770 185.763, 268 185.763 C 269.375 185.763, 271.850 185.420, 273.500 185 C 276.176 184.319, 276.230 184.237, 274 184.237 C 272.625 184.237, 270.150 184.580, 268.500 185 M 257.500 187 C 254.824 187.681, 254.770 187.763, 257 187.763 C 258.375 187.763, 260.850 187.420, 262.500 187 C 265.176 186.319, 265.230 186.237, 263 186.237 C 261.625 186.237, 259.150 186.580, 257.500 187 M 290 186.831 C 290.825 187.341, 292.625 188.059, 294 188.427 C 295.737 188.892, 296.042 188.813, 295 188.169 C 294.175 187.659, 292.375 186.941, 291 186.573 C 289.263 186.108, 288.958 186.187, 290 186.831 M 297.138 189.471 C 297.397 189.730, 300.735 191.111, 304.555 192.540 C 308.375 193.968, 313.075 196.017, 315 197.092 C 318.426 199.005, 318.452 199.005, 316.245 197.109 C 313.605 194.840, 295.117 187.450, 297.138 189.471 M 232.633 194.337 C 230.722 198.909, 229.780 202, 230.297 202 C 230.534 202, 231.536 199.863, 232.522 197.250 C 233.509 194.637, 234.808 192.169, 235.408 191.765 C 236.160 191.259, 236.115 191.026, 235.263 191.015 C 234.583 191.007, 233.399 192.502, 232.633 194.337 M 228.111 206.111 C 227.495 207.878, 227.166 209.499, 227.380 209.713 C 227.594 209.927, 228.273 208.656, 228.889 206.889 C 229.505 205.122, 229.834 203.501, 229.620 203.287 C 229.406 203.073, 228.727 204.344, 228.111 206.111 M 225.111 214.111 C 224.495 215.878, 224.166 217.499, 224.380 217.713 C 224.594 217.927, 225.273 216.656, 225.889 214.889 C 226.505 213.122, 226.834 211.501, 226.620 211.287 C 226.406 211.073, 225.727 212.344, 225.111 214.111 M 312.111 223.111 C 311.495 224.878, 311.166 226.499, 311.380 226.713 C 311.594 226.927, 312.273 225.656, 312.889 223.889 C 313.505 222.122, 313.834 220.501, 313.620 220.287 C 313.406 220.073, 312.727 221.344, 312.111 223.111 M 220.111 227.111 C 219.495 228.878, 219.166 230.499, 219.380 230.713 C 219.594 230.927, 220.273 229.656, 220.889 227.889 C 221.505 226.122, 221.834 224.501, 221.620 224.287 C 221.406 224.073, 220.727 225.344, 220.111 227.111 M 217.111 235.111 C 216.495 236.878, 216.166 238.499, 216.380 238.713 C 216.594 238.927, 217.273 237.656, 217.889 235.889 C 218.505 234.122, 218.834 232.501, 218.620 232.287 C 218.406 232.073, 217.727 233.344, 217.111 235.111 M 305.650 240.150 C 304.192 244.100, 303.165 247.499, 303.370 247.703 C 303.574 247.907, 304.937 244.846, 306.400 240.900 C 307.863 236.954, 308.889 233.555, 308.680 233.347 C 308.472 233.139, 307.108 236.200, 305.650 240.150 M 214.111 243.111 C 213.495 244.878, 213.166 246.499, 213.380 246.713 C 213.594 246.927, 214.273 245.656, 214.889 243.889 C 215.505 242.122, 215.834 240.501, 215.620 240.287 C 215.406 240.073, 214.727 241.344, 214.111 243.111 M 301.111 252.111 C 300.495 253.878, 300.166 255.499, 300.380 255.713 C 300.594 255.927, 301.273 254.656, 301.889 252.889 C 302.505 251.122, 302.834 249.501, 302.620 249.287 C 302.406 249.073, 301.727 250.344, 301.111 252.111 M 135.400 256.400 C 133.530 258.270, 132.002 260.408, 132.004 261.150 C 132.006 261.892, 132.869 261.087, 133.923 259.359 C 134.976 257.632, 136.437 255.832, 137.169 255.359 C 137.901 254.887, 148.175 254.258, 160 253.962 C 181.500 253.423, 181.500 253.423, 160.150 253.212 C 138.800 253, 138.800 253, 135.400 256.400 M 319.459 254.067 C 319.096 254.653, 319.070 255.403, 319.400 255.733 C 319.730 256.063, 320 255.808, 320 255.167 C 320 254.315, 325.648 254, 340.923 254 C 361.847 254, 361.847 254, 365.173 256.614 C 368.500 259.227, 368.500 259.227, 365.234 256.114 C 361.968 253, 361.968 253, 341.043 253 C 327.302 253, 319.892 253.366, 319.459 254.067 M 206.111 264.111 C 205.495 265.878, 205.166 267.499, 205.380 267.713 C 205.594 267.927, 206.273 266.656, 206.889 264.889 C 207.505 263.122, 207.834 261.501, 207.620 261.287 C 207.406 261.073, 206.727 262.344, 206.111 264.111 M 294.650 269.150 C 293.192 273.100, 292.165 276.499, 292.370 276.703 C 292.574 276.907, 293.937 273.846, 295.400 269.900 C 296.863 265.954, 297.889 262.555, 297.680 262.347 C 297.472 262.139, 296.108 265.200, 294.650 269.150 M 370.078 265.510 C 370.035 266.066, 375.590 283.166, 382.422 303.510 C 389.254 323.855, 394.879 340.045, 394.922 339.490 C 394.965 338.934, 389.410 321.834, 382.578 301.490 C 375.746 281.145, 370.121 264.955, 370.078 265.510 M 186.542 268.867 C 186.087 270.300, 184.829 270.998, 182.201 271.274 C 178.500 271.664, 178.500 271.664, 182.215 271.832 C 185.062 271.961, 186.190 271.513, 187.046 269.914 C 187.660 268.767, 187.942 267.608, 187.672 267.339 C 187.403 267.070, 186.894 267.757, 186.542 268.867 M 313.607 268.582 C 313.273 269.452, 313 270.352, 313 270.582 C 313 270.812, 322.196 271, 333.435 271 C 353.870 271, 353.870 271, 357.166 281.056 C 358.979 286.588, 360.593 290.722, 360.752 290.245 C 360.911 289.767, 359.569 285.130, 357.771 279.938 C 354.500 270.500, 354.500 270.500, 334.289 270.229 C 316.933 269.997, 314.159 269.750, 314.646 268.479 C 314.959 267.666, 314.989 267, 314.714 267 C 314.439 267, 313.941 267.712, 313.607 268.582 M 146.656 273.206 C 145.920 276.022, 146.606 276.815, 147.458 274.133 C 147.913 272.700, 149.171 272.002, 151.799 271.726 C 155.500 271.336, 155.500 271.336, 151.367 271.168 C 147.873 271.026, 147.144 271.342, 146.656 273.206 M 202.607 273.582 C 201.582 276.252, 201.932 281.527, 203.250 283.281 C 204.475 284.912, 218.949 291.385, 219.697 290.636 C 219.906 290.427, 216.455 288.796, 212.028 287.011 C 203.258 283.476, 202.233 282.115, 203.315 275.446 C 203.910 271.780, 203.606 270.979, 202.607 273.582 M 125.105 282.105 C 123.855 285.988, 123.009 289.343, 123.226 289.560 C 123.443 289.777, 124.644 286.778, 125.895 282.895 C 127.145 279.012, 127.991 275.657, 127.774 275.440 C 127.557 275.223, 126.356 278.222, 125.105 282.105 M 143.105 284.105 C 141.855 287.988, 141.009 291.343, 141.226 291.560 C 141.443 291.777, 142.644 288.778, 143.895 284.895 C 145.145 281.012, 145.991 277.657, 145.774 277.440 C 145.557 277.223, 144.356 280.222, 143.105 284.105 M 290.111 281.111 C 289.495 282.878, 289.166 284.499, 289.380 284.713 C 289.594 284.927, 290.273 283.656, 290.889 281.889 C 291.505 280.122, 291.834 278.501, 291.620 278.287 C 291.406 278.073, 290.727 279.344, 290.111 281.111 M 221 291.316 C 221 291.489, 226.477 293.852, 233.171 296.566 C 245.343 301.500, 245.343 301.500, 226.921 302.034 C 208.500 302.568, 208.500 302.568, 228.450 302.784 C 241.144 302.922, 248.052 302.652, 247.444 302.044 C 246.546 301.146, 222.763 291, 221.557 291 C 221.251 291, 221 291.142, 221 291.316 M 285.111 294.111 C 284.495 295.878, 284.166 297.499, 284.380 297.713 C 284.594 297.927, 285.273 296.656, 285.889 294.889 C 286.505 293.122, 286.834 291.501, 286.620 291.287 C 286.406 291.073, 285.727 292.344, 285.111 294.111 M 118.105 304.105 C 116.855 307.988, 116.009 311.343, 116.226 311.560 C 116.443 311.777, 117.644 308.778, 118.895 304.895 C 120.145 301.012, 120.991 297.657, 120.774 297.440 C 120.557 297.223, 119.356 300.222, 118.105 304.105 M 283.015 300.250 C 283.003 301.635, 283.783 301.969, 286.750 301.850 C 290.151 301.714, 290.221 301.659, 287.503 301.260 C 285.855 301.018, 284.174 300.298, 283.769 299.660 C 283.290 298.907, 283.025 299.114, 283.015 300.250 M 167.357 301.992 C 161.738 304.259, 160.280 312.030, 164.598 316.694 C 167.195 319.500, 167.195 319.500, 165.098 316.615 C 162.484 313.020, 162.403 307.960, 164.910 304.861 C 166.777 302.552, 167.276 302.488, 187.660 301.952 C 208.500 301.403, 208.500 301.403, 189 301.265 C 178.275 301.189, 168.536 301.516, 167.357 301.992 M 314.340 302.960 C 334.729 303.488, 335.222 303.551, 337.090 305.861 C 338.141 307.159, 339 307.754, 339 307.183 C 339 306.612, 337.814 305.212, 336.365 304.073 C 333.875 302.114, 332.622 302.012, 313.615 302.210 C 293.500 302.420, 293.500 302.420, 314.340 302.960 M 367.076 310.538 C 367.034 311.109, 368.541 316.059, 370.424 321.538 C 372.307 327.017, 373.882 331.033, 373.924 330.462 C 373.966 329.891, 372.459 324.941, 370.576 319.462 C 368.693 313.983, 367.118 309.967, 367.076 310.538 M 337.646 316.481 C 337.315 317.343, 336.022 318.459, 334.772 318.961 C 333.308 319.549, 333.067 319.896, 334.095 319.937 C 335.822 320.005, 339.663 316.330, 338.784 315.451 C 338.489 315.155, 337.976 315.619, 337.646 316.481 M 111.600 324.600 C 110.633 327.667, 110.022 330.356, 110.242 330.576 C 110.462 330.796, 111.433 328.467, 112.400 325.400 C 113.367 322.333, 113.978 319.644, 113.758 319.424 C 113.538 319.204, 112.567 321.533, 111.600 324.600 M 128.111 330.111 C 126.301 335.634, 124.995 340.328, 125.209 340.542 C 125.422 340.756, 127.079 336.412, 128.889 330.889 C 130.699 325.366, 132.005 320.672, 131.791 320.458 C 131.578 320.244, 129.921 324.588, 128.111 330.111 M 276.750 320.744 C 281.288 320.929, 288.712 320.929, 293.250 320.744 C 297.788 320.559, 294.075 320.407, 285 320.407 C 275.925 320.407, 272.212 320.559, 276.750 320.744 M 104.600 346.600 C 103.633 349.667, 103.022 352.356, 103.242 352.576 C 103.462 352.796, 104.433 350.467, 105.400 347.400 C 106.367 344.333, 106.978 341.644, 106.758 341.424 C 106.538 341.204, 105.567 343.533, 104.600 346.600 M 379.382 348.735 C 379.805 350.970, 379.805 350.970, 350.652 351.251 C 321.500 351.531, 321.500 351.531, 351.250 351.766 C 367.613 351.895, 380.968 351.663, 380.930 351.250 C 380.891 350.837, 380.432 349.600, 379.909 348.500 C 379.020 346.629, 378.986 346.644, 379.382 348.735 M 121.858 352.258 C 122.275 352.675, 148.240 352.900, 179.558 352.758 C 236.500 352.499, 236.500 352.499, 178.800 352 C 147.064 351.725, 121.441 351.841, 121.858 352.258 M 399.757 382.343 C 399.898 398.379, 400.140 416.225, 400.294 422 C 400.449 427.775, 400.664 415.175, 400.772 394 C 400.881 372.825, 400.639 354.979, 400.235 354.343 C 399.831 353.706, 399.615 366.306, 399.757 382.343 M 101.607 355.582 C 101.273 356.452, 101 374.261, 101 395.159 C 101 433.154, 101 433.154, 103.923 436.077 C 106.846 439, 106.846 439, 249.973 439 C 376.311 439, 393.445 438.821, 396.050 437.474 C 397.672 436.635, 399 435.724, 399 435.449 C 399 435.174, 397.672 435.635, 396.050 436.474 C 393.445 437.821, 376.314 438, 250.004 438 C 106.909 438, 106.909 438, 104.421 435.512 C 101.933 433.024, 101.933 433.024, 102.217 393.512 C 102.373 371.780, 102.436 353.999, 102.357 354 C 102.278 354, 101.941 354.712, 101.607 355.582"
        stroke="none" fill="#0096FF" fill-rule="evenodd" />
    <path
        d="M 123.231 82.250 C 111.475 93.938, 101.402 104.326, 100.847 105.334 C 99.994 106.888, 101.608 108.954, 111.399 118.834 C 122.959 130.500, 122.959 130.500, 146.476 107.012 C 169.992 83.524, 169.992 83.524, 158.762 72.262 C 152.586 66.068, 146.874 61, 146.069 61 C 145.265 61, 134.987 70.563, 123.231 82.250 M 237 79.959 C 232.875 80.936, 220.521 83.851, 209.546 86.435 C 198.572 89.019, 189.122 91.412, 188.546 91.753 C 186.718 92.835, 138 140.279, 138 140.978 C 138 141.345, 151.334 148.947, 167.631 157.870 C 196.302 173.568, 204.204 177, 211.672 177 C 214.397 177, 264.939 168.383, 282.897 164.857 C 289.971 163.468, 293 160.503, 293 154.969 C 293 151.720, 292.363 150.209, 289.996 147.842 C 286.992 144.838, 286.992 144.838, 252.746 145.540 C 218.500 146.243, 218.500 146.243, 215.750 144.049 C 213.607 142.339, 213 141.006, 213 138.009 C 213 128.740, 214.955 127.965, 240.944 126.929 C 252.250 126.478, 267.800 126.089, 275.500 126.064 C 288.203 126.024, 289.963 126.239, 294.500 128.387 C 301.882 131.883, 308.123 139.379, 310.904 148.090 C 312.050 151.681, 312.050 151.681, 329.775 154.589 C 339.524 156.188, 350.799 157.497, 354.832 157.498 C 361.850 157.500, 362.289 157.360, 365.082 154.234 C 368.885 149.978, 369.188 142.929, 365.745 138.822 C 362.715 135.209, 269.603 81.554, 262.915 79.568 C 256.157 77.560, 246.505 77.706, 237 79.959 M 257.500 187.652 C 247.050 189.518, 237.593 191.242, 236.484 191.483 C 234.841 191.840, 231.557 199.597, 218.734 233.405 C 203.944 272.400, 201.786 279.540, 203.820 282.743 C 204.254 283.426, 214.010 287.811, 225.500 292.488 C 236.990 297.165, 246.865 301.474, 247.445 302.065 C 248.197 302.831, 236.764 303.048, 207.670 302.820 C 166.839 302.500, 166.839 302.500, 164.920 304.861 C 162.245 308.150, 162.458 313.258, 165.413 316.694 C 167.827 319.500, 167.827 319.500, 251.502 319.500 C 335.177 319.500, 335.177 319.500, 337.088 317.139 C 339.814 313.773, 339.568 308.478, 336.545 305.455 C 334.129 303.038, 333.821 303, 316.795 302.994 C 297.176 302.987, 283 302.098, 283 300.875 C 283 300.419, 289.806 282.148, 298.124 260.273 C 319.888 203.037, 319.177 205.081, 318.459 201.812 C 318.111 200.228, 316.799 198.259, 315.544 197.437 C 311.244 194.620, 282.503 184.014, 279.500 184.137 C 277.850 184.205, 267.950 185.786, 257.500 187.652 M 159.901 253.962 C 136.829 254.537, 136.234 254.671, 133.558 259.927 C 132.837 261.342, 125.442 283.929, 117.124 310.121 C 102 357.742, 102 357.742, 102 395.416 C 102 433.091, 102 433.091, 104.455 435.545 C 106.909 438, 106.909 438, 250.004 438 C 402.505 438, 397.577 438.150, 399.379 433.455 C 399.720 432.565, 400 414.897, 400 394.194 C 400 356.552, 400 356.552, 383.922 308.026 C 370.147 266.452, 367.423 259.106, 364.906 256.750 C 361.968 254, 361.968 254, 341.138 254 C 320.308 254, 320.308 254, 317.281 261.750 C 314.254 269.500, 314.254 269.500, 334.103 269.771 C 351.739 270.011, 354.051 270.234, 354.845 271.771 C 355.336 272.722, 361.258 290.600, 368.006 311.500 C 374.753 332.400, 380.459 349.995, 380.687 350.601 C 380.985 351.396, 345.290 351.906, 252.094 352.438 C 181.142 352.842, 122.663 352.910, 122.142 352.588 C 121.177 351.991, 122.490 347.646, 138.560 298.250 C 147.426 271, 147.426 271, 166.640 271 C 185.855 271, 185.855 271, 188.927 263.032 C 190.617 258.650, 192 254.600, 192 254.032 C 192 253.427, 189.829 253.088, 186.750 253.212 C 183.863 253.328, 171.780 253.666, 159.901 253.962"
        stroke="none" fill="#0096FF" fill-rule="evenodd" />
</svg>
